<svg xmlns="http://www.w3.org/2000/svg" xmlns:xlink="http://www.w3.org/1999/xlink" id="svg" version="1.1" width="26" height="26" viewBox="0 0 400 400"><g id="svgg"><path id="path0" d="M187.250 0.269 C 185.692 0.394,183.329 0.578,182.000 0.679 C 180.671 0.779,178.796 0.961,177.833 1.083 C 176.871 1.205,175.296 1.391,174.333 1.496 C 173.371 1.601,171.946 1.791,171.167 1.918 C 170.387 2.045,169.150 2.231,168.417 2.332 C 167.683 2.433,166.558 2.617,165.917 2.741 C 165.275 2.865,164.300 3.053,163.750 3.159 C 163.200 3.265,162.337 3.423,161.833 3.510 C 160.379 3.761,157.839 4.297,154.417 5.075 C 153.775 5.220,152.888 5.412,152.445 5.501 C 152.003 5.590,151.577 5.703,151.498 5.751 C 151.420 5.800,151.032 5.909,150.636 5.995 C 150.240 6.081,149.092 6.382,148.083 6.664 C 147.075 6.946,145.725 7.321,145.083 7.498 C 141.800 8.403,140.839 8.689,140.000 9.012 C 139.496 9.207,138.821 9.423,138.500 9.494 C 138.179 9.565,137.579 9.750,137.167 9.906 C 136.754 10.062,136.192 10.250,135.917 10.324 C 135.642 10.398,135.079 10.584,134.667 10.737 C 134.254 10.890,133.504 11.157,133.000 11.330 C 132.496 11.504,131.671 11.804,131.167 11.998 C 130.662 12.192,129.912 12.467,129.500 12.608 C 129.087 12.750,128.525 12.964,128.250 13.084 C 127.975 13.204,127.375 13.434,126.917 13.595 C 126.458 13.756,126.012 13.951,125.925 14.028 C 125.838 14.104,125.665 14.167,125.540 14.167 C 125.415 14.167,124.886 14.358,124.365 14.592 C 123.212 15.109,122.575 15.387,121.917 15.661 C 120.995 16.044,120.252 16.369,119.961 16.518 C 119.801 16.600,119.567 16.667,119.439 16.667 C 119.312 16.667,119.114 16.779,119.000 16.917 C 118.886 17.054,118.685 17.167,118.553 17.167 C 118.163 17.167,106.082 23.090,104.250 24.180 C 103.792 24.453,103.267 24.749,103.083 24.838 C 102.900 24.927,102.638 25.068,102.500 25.153 C 102.362 25.237,101.614 25.669,100.837 26.112 C 100.059 26.554,99.297 26.992,99.143 27.083 C 98.988 27.175,98.518 27.432,98.098 27.655 C 97.677 27.877,97.333 28.102,97.333 28.156 C 97.333 28.209,97.096 28.357,96.806 28.486 C 96.515 28.614,95.844 29.007,95.314 29.360 C 94.783 29.712,94.312 30.000,94.266 30.000 C 94.180 30.000,93.055 30.716,92.750 30.964 C 92.658 31.039,92.321 31.246,92.000 31.425 C 91.679 31.604,91.379 31.789,91.333 31.836 C 91.287 31.883,90.800 32.220,90.250 32.586 C 89.700 32.951,89.225 33.306,89.194 33.375 C 89.164 33.444,89.066 33.500,88.978 33.500 C 88.789 33.500,86.776 34.859,86.694 35.042 C 86.664 35.110,86.567 35.167,86.479 35.167 C 86.391 35.167,86.229 35.243,86.118 35.335 C 86.007 35.428,84.754 36.331,83.333 37.343 C 81.912 38.354,80.725 39.253,80.694 39.341 C 80.664 39.428,80.571 39.500,80.488 39.500 C 80.405 39.500,80.205 39.607,80.044 39.738 C 79.882 39.869,79.075 40.483,78.250 41.103 C 77.425 41.722,76.712 42.271,76.667 42.323 C 76.621 42.375,76.171 42.731,75.667 43.115 C 75.162 43.498,74.600 43.949,74.417 44.116 C 74.233 44.283,73.746 44.680,73.333 44.997 C 72.921 45.315,72.546 45.615,72.500 45.665 C 72.454 45.714,71.854 46.226,71.167 46.803 C 70.479 47.380,69.689 48.054,69.412 48.301 C 69.134 48.548,68.384 49.199,67.745 49.749 C 67.106 50.298,66.311 51.011,65.979 51.332 C 65.647 51.654,64.672 52.551,63.813 53.326 C 61.795 55.147,55.147 61.795,53.326 63.813 C 52.551 64.672,51.654 65.647,51.332 65.979 C 51.011 66.311,50.298 67.106,49.749 67.745 C 49.199 68.384,48.548 69.134,48.301 69.412 C 48.054 69.689,47.380 70.479,46.803 71.167 C 46.226 71.854,45.714 72.454,45.665 72.500 C 45.615 72.546,45.315 72.921,44.997 73.333 C 44.680 73.746,44.283 74.233,44.116 74.417 C 43.949 74.600,43.498 75.162,43.115 75.667 C 42.731 76.171,42.375 76.621,42.323 76.667 C 42.271 76.712,41.722 77.425,41.103 78.250 C 40.483 79.075,39.869 79.882,39.738 80.044 C 39.607 80.205,39.500 80.405,39.500 80.488 C 39.500 80.571,39.428 80.664,39.341 80.694 C 39.253 80.725,38.354 81.912,37.343 83.333 C 36.331 84.754,35.428 86.007,35.335 86.118 C 35.243 86.229,35.167 86.391,35.167 86.479 C 35.167 86.567,35.110 86.664,35.042 86.694 C 34.859 86.776,33.500 88.789,33.500 88.978 C 33.500 89.066,33.444 89.164,33.375 89.194 C 33.306 89.225,32.951 89.700,32.586 90.250 C 32.220 90.800,31.883 91.287,31.836 91.333 C 31.789 91.379,31.604 91.679,31.425 92.000 C 31.246 92.321,31.039 92.658,30.964 92.750 C 30.716 93.055,30.000 94.180,30.000 94.266 C 30.000 94.312,29.712 94.783,29.360 95.314 C 29.007 95.844,28.614 96.515,28.486 96.806 C 28.357 97.096,28.209 97.333,28.156 97.333 C 28.102 97.333,27.877 97.677,27.655 98.098 C 27.432 98.518,27.175 98.988,27.083 99.143 C 26.992 99.297,26.554 100.059,26.112 100.837 C 25.669 101.614,25.237 102.362,25.153 102.500 C 25.068 102.638,24.927 102.900,24.838 103.083 C 24.749 103.267,24.453 103.792,24.180 104.250 C 23.090 106.082,17.167 118.163,17.167 118.553 C 17.167 118.685,17.054 118.886,16.917 119.000 C 16.779 119.114,16.667 119.312,16.667 119.439 C 16.667 119.567,16.600 119.801,16.518 119.961 C 16.369 120.252,16.044 120.995,15.661 121.917 C 15.387 122.575,15.109 123.212,14.592 124.365 C 14.358 124.886,14.167 125.415,14.167 125.540 C 14.167 125.665,14.104 125.838,14.028 125.925 C 13.951 126.012,13.756 126.458,13.595 126.917 C 13.434 127.375,13.204 127.975,13.084 128.250 C 12.964 128.525,12.750 129.087,12.608 129.500 C 12.467 129.912,12.192 130.662,11.998 131.167 C 11.804 131.671,11.504 132.496,11.330 133.000 C 11.157 133.504,10.890 134.254,10.737 134.667 C 10.584 135.079,10.398 135.642,10.324 135.917 C 10.250 136.192,10.062 136.754,9.906 137.167 C 9.750 137.579,9.565 138.179,9.494 138.500 C 9.423 138.821,9.207 139.496,9.012 140.000 C 8.689 140.839,8.403 141.800,7.498 145.083 C 7.321 145.725,6.946 147.075,6.663 148.083 C 6.380 149.092,6.109 150.104,6.060 150.333 C 6.011 150.563,5.874 151.087,5.755 151.500 C 5.635 151.912,5.446 152.700,5.334 153.250 C 5.221 153.800,5.035 154.625,4.920 155.083 C 4.805 155.542,4.621 156.367,4.510 156.917 C 4.400 157.467,4.209 158.367,4.086 158.917 C 3.964 159.467,3.787 160.329,3.693 160.833 C 3.600 161.337,3.405 162.313,3.260 163.000 C 3.115 163.688,2.997 164.395,2.998 164.573 C 2.999 164.750,2.895 165.350,2.767 165.906 C 2.639 166.462,2.448 167.554,2.343 168.333 C 2.238 169.112,2.048 170.387,1.920 171.167 C 1.792 171.946,1.601 173.371,1.496 174.333 C 1.391 175.296,1.205 176.871,1.083 177.833 C 0.961 178.796,0.780 180.671,0.681 182.000 C 0.582 183.329,0.388 185.879,0.249 187.667 C -0.102 192.208,-0.102 207.792,0.249 212.333 C 0.388 214.121,0.582 216.671,0.681 218.000 C 0.780 219.329,0.961 221.204,1.083 222.167 C 1.205 223.129,1.391 224.704,1.496 225.667 C 1.601 226.629,1.792 228.054,1.920 228.833 C 2.048 229.612,2.238 230.887,2.343 231.667 C 2.448 232.446,2.639 233.538,2.767 234.094 C 2.895 234.650,2.999 235.250,2.998 235.427 C 2.997 235.605,3.115 236.313,3.260 237.000 C 3.405 237.688,3.600 238.662,3.693 239.167 C 3.787 239.671,3.964 240.533,4.086 241.083 C 4.209 241.633,4.400 242.533,4.510 243.083 C 4.621 243.633,4.805 244.458,4.920 244.917 C 5.035 245.375,5.221 246.200,5.334 246.750 C 5.446 247.300,5.635 248.088,5.755 248.500 C 5.874 248.912,6.011 249.438,6.060 249.667 C 6.109 249.896,6.380 250.908,6.663 251.917 C 6.946 252.925,7.321 254.275,7.498 254.917 C 8.324 257.918,8.646 259.014,9.063 260.250 C 9.310 260.983,9.589 261.846,9.683 262.167 C 9.777 262.487,9.954 263.012,10.076 263.333 C 10.199 263.654,10.416 264.292,10.559 264.750 C 10.701 265.208,11.051 266.221,11.335 267.000 C 11.620 267.779,11.918 268.604,11.997 268.833 C 12.327 269.781,13.012 271.606,13.154 271.917 C 13.239 272.100,13.438 272.625,13.598 273.083 C 13.758 273.542,13.951 273.988,14.028 274.075 C 14.104 274.162,14.167 274.335,14.167 274.460 C 14.167 274.585,14.358 275.114,14.592 275.635 C 15.109 276.788,15.387 277.425,15.661 278.083 C 16.044 279.005,16.369 279.748,16.518 280.039 C 16.600 280.199,16.667 280.433,16.667 280.561 C 16.667 280.688,16.779 280.886,16.917 281.000 C 17.054 281.114,17.167 281.312,17.167 281.440 C 17.167 281.854,23.028 293.812,24.180 295.750 C 24.453 296.208,24.749 296.733,24.838 296.917 C 24.927 297.100,25.068 297.362,25.153 297.500 C 25.237 297.637,25.669 298.386,26.112 299.163 C 26.554 299.941,26.992 300.703,27.083 300.857 C 27.175 301.012,27.432 301.482,27.655 301.902 C 27.877 302.323,28.102 302.667,28.156 302.667 C 28.209 302.667,28.357 302.904,28.486 303.194 C 28.614 303.485,29.007 304.156,29.360 304.686 C 29.712 305.217,30.000 305.688,30.000 305.734 C 30.000 305.824,30.728 306.962,30.980 307.266 C 31.063 307.366,31.262 307.703,31.422 308.016 C 31.582 308.328,31.760 308.621,31.817 308.667 C 31.874 308.712,32.220 309.200,32.586 309.750 C 32.951 310.300,33.306 310.775,33.375 310.806 C 33.444 310.836,33.500 310.934,33.500 311.022 C 33.500 311.211,34.859 313.224,35.042 313.306 C 35.110 313.336,35.167 313.433,35.167 313.521 C 35.167 313.609,35.243 313.771,35.335 313.882 C 35.428 313.993,36.331 315.246,37.343 316.667 C 38.354 318.087,39.253 319.275,39.341 319.306 C 39.428 319.336,39.500 319.429,39.500 319.512 C 39.500 319.595,39.609 319.795,39.743 319.956 C 39.876 320.118,40.485 320.925,41.095 321.750 C 41.705 322.575,42.252 323.287,42.311 323.333 C 42.369 323.379,42.731 323.829,43.115 324.333 C 43.498 324.837,43.949 325.400,44.116 325.583 C 44.283 325.767,44.680 326.254,44.997 326.667 C 45.315 327.079,45.616 327.454,45.666 327.500 C 45.765 327.590,47.261 329.375,47.667 329.887 C 47.804 330.061,48.104 330.402,48.333 330.644 C 48.563 330.887,49.199 331.610,49.749 332.251 C 50.298 332.892,50.936 333.614,51.165 333.855 C 51.395 334.097,52.292 335.072,53.159 336.022 C 55.133 338.187,61.684 344.740,63.971 346.838 C 64.917 347.706,65.892 348.605,66.137 348.835 C 66.383 349.064,67.108 349.702,67.749 350.251 C 68.390 350.801,69.113 351.438,69.356 351.667 C 69.598 351.896,69.939 352.196,70.113 352.333 C 70.625 352.739,72.410 354.235,72.500 354.334 C 72.546 354.384,72.921 354.685,73.333 355.003 C 73.746 355.320,74.233 355.717,74.417 355.884 C 74.600 356.051,75.162 356.502,75.667 356.885 C 76.171 357.269,76.621 357.631,76.667 357.689 C 76.712 357.748,77.425 358.295,78.250 358.905 C 79.075 359.515,79.882 360.124,80.044 360.257 C 80.205 360.391,80.405 360.500,80.488 360.500 C 80.571 360.500,80.664 360.572,80.694 360.659 C 80.725 360.747,81.912 361.646,83.333 362.657 C 84.754 363.669,86.007 364.572,86.118 364.665 C 86.229 364.757,86.391 364.833,86.479 364.833 C 86.567 364.833,86.664 364.890,86.694 364.958 C 86.776 365.141,88.789 366.500,88.978 366.500 C 89.066 366.500,89.164 366.556,89.194 366.625 C 89.225 366.694,89.700 367.049,90.250 367.414 C 90.800 367.780,91.287 368.126,91.333 368.183 C 91.379 368.240,91.672 368.418,91.984 368.578 C 92.297 368.738,92.634 368.937,92.734 369.020 C 93.038 369.272,94.176 370.000,94.266 370.000 C 94.312 370.000,94.783 370.288,95.314 370.640 C 95.844 370.993,96.515 371.386,96.806 371.514 C 97.096 371.643,97.333 371.791,97.333 371.844 C 97.333 371.898,97.677 372.123,98.098 372.345 C 98.518 372.568,98.988 372.825,99.143 372.917 C 99.297 373.008,100.059 373.446,100.837 373.888 C 101.614 374.331,102.362 374.763,102.500 374.847 C 102.638 374.932,102.900 375.073,103.083 375.162 C 103.267 375.251,103.792 375.547,104.250 375.820 C 106.188 376.972,118.146 382.833,118.560 382.833 C 118.688 382.833,118.886 382.946,119.000 383.083 C 119.114 383.221,119.312 383.333,119.439 383.333 C 119.567 383.333,119.801 383.400,119.961 383.482 C 120.252 383.631,120.995 383.956,121.917 384.339 C 122.575 384.613,123.212 384.891,124.365 385.408 C 124.886 385.642,125.415 385.833,125.540 385.833 C 125.665 385.833,125.838 385.896,125.925 385.972 C 126.012 386.049,126.458 386.242,126.917 386.402 C 127.375 386.562,127.900 386.761,128.083 386.846 C 128.394 386.988,130.219 387.673,131.167 388.003 C 131.396 388.082,132.221 388.380,133.000 388.665 C 133.779 388.949,134.792 389.299,135.250 389.441 C 135.708 389.584,136.346 389.801,136.667 389.924 C 136.987 390.046,137.512 390.223,137.833 390.317 C 138.154 390.411,139.017 390.690,139.750 390.937 C 140.986 391.354,142.082 391.676,145.083 392.502 C 145.725 392.679,147.075 393.054,148.083 393.337 C 149.092 393.620,150.104 393.891,150.333 393.940 C 150.563 393.989,151.087 394.126,151.500 394.245 C 151.912 394.365,152.700 394.554,153.250 394.666 C 153.800 394.779,154.625 394.965,155.083 395.080 C 155.542 395.195,156.367 395.379,156.917 395.490 C 157.467 395.600,158.367 395.791,158.917 395.914 C 159.467 396.036,160.329 396.213,160.833 396.307 C 161.337 396.400,162.313 396.595,163.000 396.740 C 163.688 396.885,164.395 397.003,164.573 397.002 C 164.750 397.001,165.350 397.105,165.906 397.233 C 166.462 397.361,167.554 397.552,168.333 397.657 C 169.112 397.762,170.387 397.952,171.167 398.080 C 171.946 398.208,173.371 398.399,174.333 398.504 C 175.296 398.609,176.871 398.795,177.833 398.917 C 178.796 399.039,180.671 399.220,182.000 399.319 C 183.329 399.418,185.879 399.612,187.667 399.751 C 192.208 400.102,207.792 400.102,212.333 399.751 C 214.121 399.612,216.671 399.418,218.000 399.319 C 219.329 399.220,221.204 399.039,222.167 398.917 C 223.129 398.795,224.704 398.609,225.667 398.504 C 226.629 398.399,228.054 398.208,228.833 398.080 C 229.612 397.952,230.887 397.762,231.667 397.657 C 232.446 397.552,233.538 397.361,234.094 397.233 C 234.650 397.105,235.250 397.001,235.427 397.002 C 235.605 397.003,236.313 396.885,237.000 396.740 C 237.688 396.595,238.662 396.400,239.167 396.307 C 239.671 396.213,240.533 396.036,241.083 395.914 C 241.633 395.791,242.533 395.600,243.083 395.490 C 243.633 395.379,244.458 395.195,244.917 395.080 C 245.375 394.965,246.200 394.779,246.750 394.666 C 247.300 394.554,248.088 394.365,248.500 394.245 C 248.912 394.126,249.438 393.989,249.667 393.940 C 249.896 393.891,250.908 393.620,251.917 393.337 C 252.925 393.054,254.275 392.679,254.917 392.502 C 257.918 391.676,259.014 391.354,260.250 390.937 C 260.983 390.690,261.846 390.411,262.167 390.317 C 262.487 390.223,263.012 390.046,263.333 389.924 C 263.654 389.801,264.292 389.584,264.750 389.441 C 265.208 389.299,266.221 388.949,267.000 388.665 C 267.779 388.380,268.604 388.082,268.833 388.003 C 269.781 387.673,271.606 386.988,271.917 386.846 C 272.100 386.761,272.625 386.562,273.083 386.402 C 273.542 386.242,273.988 386.049,274.075 385.972 C 274.162 385.896,274.335 385.833,274.460 385.833 C 274.585 385.833,275.114 385.642,275.635 385.408 C 276.788 384.891,277.425 384.613,278.083 384.339 C 279.005 383.956,279.748 383.631,280.039 383.482 C 280.199 383.400,280.433 383.333,280.561 383.333 C 280.688 383.333,280.886 383.221,281.000 383.083 C 281.114 382.946,281.312 382.833,281.440 382.833 C 281.854 382.833,293.812 376.972,295.750 375.820 C 296.208 375.547,296.733 375.251,296.917 375.162 C 297.100 375.073,297.362 374.932,297.500 374.847 C 297.637 374.763,298.386 374.331,299.163 373.888 C 299.941 373.446,300.703 373.008,300.857 372.917 C 301.012 372.825,301.482 372.568,301.902 372.345 C 302.323 372.123,302.667 371.898,302.667 371.844 C 302.667 371.791,302.904 371.643,303.194 371.514 C 303.485 371.386,304.156 370.993,304.686 370.640 C 305.217 370.288,305.688 370.000,305.734 370.000 C 305.824 370.000,306.962 369.272,307.266 369.020 C 307.366 368.937,307.703 368.738,308.016 368.578 C 308.328 368.418,308.621 368.240,308.667 368.183 C 308.712 368.126,309.200 367.780,309.750 367.414 C 310.300 367.049,310.775 366.694,310.806 366.625 C 310.836 366.556,310.934 366.500,311.022 366.500 C 311.211 366.500,313.224 365.141,313.306 364.958 C 313.336 364.890,313.433 364.833,313.521 364.833 C 313.609 364.833,313.771 364.757,313.882 364.665 C 313.993 364.572,315.246 363.669,316.667 362.657 C 318.087 361.646,319.275 360.747,319.306 360.659 C 319.336 360.572,319.429 360.500,319.512 360.500 C 319.595 360.500,319.795 360.391,319.956 360.257 C 320.118 360.124,320.925 359.515,321.750 358.905 C 322.575 358.295,323.287 357.748,323.333 357.689 C 323.379 357.631,323.829 357.269,324.333 356.885 C 324.837 356.502,325.400 356.051,325.583 355.884 C 325.767 355.717,326.254 355.320,326.667 355.003 C 327.079 354.685,327.454 354.384,327.500 354.334 C 327.590 354.235,329.375 352.739,329.887 352.333 C 330.061 352.196,330.402 351.896,330.644 351.667 C 330.887 351.438,331.610 350.801,332.251 350.251 C 332.892 349.702,333.617 349.064,333.863 348.835 C 334.108 348.605,335.083 347.706,336.029 346.838 C 338.249 344.802,344.802 338.249,346.838 336.029 C 347.706 335.083,348.605 334.108,348.835 333.863 C 349.064 333.617,349.702 332.892,350.251 332.251 C 350.801 331.610,351.438 330.887,351.667 330.644 C 351.896 330.402,352.196 330.061,352.333 329.887 C 352.739 329.375,354.235 327.590,354.334 327.500 C 354.384 327.454,354.685 327.079,355.003 326.667 C 355.320 326.254,355.717 325.767,355.884 325.583 C 356.051 325.400,356.502 324.837,356.885 324.333 C 357.269 323.829,357.631 323.379,357.689 323.333 C 357.748 323.287,358.295 322.575,358.905 321.750 C 359.515 320.925,360.124 320.118,360.257 319.956 C 360.391 319.795,360.500 319.595,360.500 319.512 C 360.500 319.429,360.572 319.336,360.659 319.306 C 360.747 319.275,361.646 318.087,362.657 316.667 C 363.669 315.246,364.572 313.993,364.665 313.882 C 364.757 313.771,364.833 313.609,364.833 313.521 C 364.833 313.433,364.890 313.336,364.958 313.306 C 365.141 313.224,366.500 311.211,366.500 311.022 C 366.500 310.934,366.556 310.836,366.625 310.806 C 366.694 310.775,367.049 310.300,367.414 309.750 C 367.780 309.200,368.126 308.712,368.183 308.667 C 368.240 308.621,368.418 308.328,368.578 308.016 C 368.738 307.703,368.937 307.366,369.020 307.266 C 369.272 306.962,370.000 305.824,370.000 305.734 C 370.000 305.688,370.288 305.217,370.640 304.686 C 370.993 304.156,371.386 303.485,371.514 303.194 C 371.643 302.904,371.791 302.667,371.844 302.667 C 371.898 302.667,372.123 302.323,372.345 301.902 C 372.568 301.482,372.825 301.012,372.917 300.857 C 373.008 300.703,373.446 299.941,373.888 299.163 C 374.331 298.386,374.763 297.637,374.847 297.500 C 374.932 297.362,375.073 297.100,375.162 296.917 C 375.251 296.733,375.547 296.208,375.820 295.750 C 376.972 293.812,382.833 281.854,382.833 281.440 C 382.833 281.312,382.946 281.114,383.083 281.000 C 383.221 280.886,383.333 280.688,383.333 280.561 C 383.333 280.433,383.400 280.199,383.482 280.039 C 383.631 279.748,383.956 279.005,384.339 278.083 C 384.613 277.425,384.891 276.788,385.408 275.635 C 385.642 275.114,385.833 274.585,385.833 274.460 C 385.833 274.335,385.896 274.162,385.972 274.075 C 386.049 273.988,386.242 273.542,386.402 273.083 C 386.562 272.625,386.761 272.100,386.846 271.917 C 386.988 271.606,387.673 269.781,388.003 268.833 C 388.082 268.604,388.380 267.779,388.665 267.000 C 388.949 266.221,389.299 265.208,389.441 264.750 C 389.584 264.292,389.801 263.654,389.924 263.333 C 390.046 263.012,390.223 262.487,390.317 262.167 C 390.411 261.846,390.690 260.983,390.937 260.250 C 391.354 259.014,391.676 257.918,392.502 254.917 C 392.679 254.275,393.054 252.925,393.337 251.917 C 393.620 250.908,393.891 249.896,393.940 249.667 C 393.989 249.438,394.126 248.912,394.245 248.500 C 394.365 248.088,394.554 247.300,394.666 246.750 C 394.779 246.200,394.965 245.375,395.080 244.917 C 395.195 244.458,395.379 243.633,395.490 243.083 C 395.600 242.533,395.791 241.633,395.914 241.083 C 396.036 240.533,396.213 239.671,396.307 239.167 C 396.400 238.662,396.595 237.688,396.740 237.000 C 396.885 236.313,397.003 235.605,397.002 235.427 C 397.001 235.250,397.105 234.650,397.233 234.094 C 397.361 233.538,397.552 232.446,397.657 231.667 C 397.762 230.887,397.952 229.612,398.080 228.833 C 398.208 228.054,398.399 226.629,398.504 225.667 C 398.609 224.704,398.795 223.129,398.917 222.167 C 399.039 221.204,399.220 219.329,399.319 218.000 C 399.418 216.671,399.612 214.121,399.751 212.333 C 400.102 207.792,400.102 192.208,399.751 187.667 C 399.612 185.879,399.418 183.329,399.319 182.000 C 399.220 180.671,399.039 178.796,398.917 177.833 C 398.795 176.871,398.609 175.296,398.504 174.333 C 398.399 173.371,398.208 171.946,398.080 171.167 C 397.952 170.387,397.762 169.112,397.657 168.333 C 397.552 167.554,397.361 166.462,397.233 165.906 C 397.105 165.350,397.001 164.750,397.002 164.573 C 397.003 164.395,396.885 163.688,396.740 163.000 C 396.595 162.313,396.400 161.337,396.307 160.833 C 396.213 160.329,396.036 159.467,395.914 158.917 C 395.791 158.367,395.600 157.467,395.490 156.917 C 395.379 156.367,395.195 155.542,395.080 155.083 C 394.965 154.625,394.779 153.800,394.666 153.250 C 394.554 152.700,394.365 151.912,394.245 151.500 C 394.126 151.087,393.989 150.563,393.940 150.333 C 393.891 150.104,393.620 149.092,393.337 148.083 C 393.054 147.075,392.679 145.725,392.502 145.083 C 391.676 142.082,391.354 140.986,390.937 139.750 C 390.690 139.017,390.411 138.154,390.317 137.833 C 390.223 137.512,390.046 136.987,389.924 136.667 C 389.801 136.346,389.584 135.708,389.441 135.250 C 389.299 134.792,388.949 133.779,388.665 133.000 C 388.380 132.221,388.082 131.396,388.003 131.167 C 387.673 130.219,386.988 128.394,386.846 128.083 C 386.761 127.900,386.562 127.375,386.402 126.917 C 386.242 126.458,386.049 126.012,385.972 125.925 C 385.896 125.838,385.833 125.665,385.833 125.540 C 385.833 125.415,385.642 124.886,385.408 124.365 C 384.891 123.212,384.613 122.575,384.339 121.917 C 383.956 120.995,383.631 120.252,383.482 119.961 C 383.400 119.801,383.333 119.567,383.333 119.439 C 383.333 119.312,383.221 119.114,383.083 119.000 C 382.946 118.886,382.833 118.688,382.833 118.560 C 382.833 118.146,376.972 106.188,375.820 104.250 C 375.547 103.792,375.251 103.267,375.162 103.083 C 375.073 102.900,374.932 102.638,374.847 102.500 C 374.763 102.362,374.331 101.614,373.888 100.837 C 373.446 100.059,373.008 99.297,372.917 99.143 C 372.825 98.988,372.568 98.518,372.345 98.098 C 372.123 97.677,371.898 97.333,371.844 97.333 C 371.791 97.333,371.643 97.096,371.514 96.806 C 371.386 96.515,370.993 95.844,370.640 95.314 C 370.288 94.783,370.000 94.312,370.000 94.266 C 370.000 94.176,369.272 93.038,369.020 92.734 C 368.937 92.634,368.738 92.297,368.578 91.984 C 368.418 91.672,368.240 91.379,368.183 91.333 C 368.126 91.287,367.780 90.800,367.414 90.250 C 367.049 89.700,366.694 89.225,366.625 89.194 C 366.556 89.164,366.500 89.066,366.500 88.978 C 366.500 88.789,365.141 86.776,364.958 86.694 C 364.890 86.664,364.833 86.567,364.833 86.479 C 364.833 86.391,364.757 86.229,364.665 86.118 C 364.572 86.007,363.669 84.754,362.657 83.333 C 361.646 81.912,360.747 80.725,360.659 80.694 C 360.572 80.664,360.500 80.571,360.500 80.488 C 360.500 80.405,360.391 80.205,360.257 80.044 C 360.124 79.882,359.515 79.075,358.905 78.250 C 358.295 77.425,357.748 76.712,357.689 76.667 C 357.631 76.621,357.269 76.171,356.885 75.667 C 356.502 75.162,356.051 74.600,355.884 74.417 C 355.717 74.233,355.320 73.746,355.003 73.333 C 354.685 72.921,354.384 72.546,354.334 72.500 C 354.235 72.410,352.739 70.625,352.333 70.113 C 352.196 69.939,351.896 69.598,351.667 69.356 C 351.438 69.113,350.801 68.390,350.251 67.749 C 349.702 67.108,349.064 66.383,348.835 66.137 C 348.605 65.892,347.706 64.917,346.838 63.971 C 344.740 61.684,338.187 55.133,336.022 53.159 C 335.072 52.292,334.097 51.395,333.855 51.165 C 333.614 50.936,332.892 50.298,332.251 49.749 C 331.610 49.199,330.887 48.563,330.644 48.333 C 330.402 48.104,330.061 47.804,329.887 47.667 C 329.375 47.261,327.590 45.765,327.500 45.666 C 327.454 45.616,327.079 45.315,326.667 44.997 C 326.254 44.680,325.767 44.283,325.583 44.116 C 325.400 43.949,324.837 43.498,324.333 43.115 C 323.829 42.731,323.379 42.369,323.333 42.311 C 323.287 42.252,322.575 41.705,321.750 41.095 C 320.925 40.485,320.118 39.876,319.956 39.743 C 319.795 39.609,319.595 39.500,319.512 39.500 C 319.429 39.500,319.336 39.428,319.306 39.341 C 319.275 39.253,318.087 38.354,316.667 37.343 C 315.246 36.331,313.993 35.428,313.882 35.335 C 313.771 35.243,313.609 35.167,313.521 35.167 C 313.433 35.167,313.336 35.110,313.306 35.042 C 313.224 34.859,311.211 33.500,311.022 33.500 C 310.934 33.500,310.836 33.444,310.806 33.375 C 310.775 33.306,310.300 32.951,309.750 32.586 C 309.200 32.220,308.712 31.874,308.667 31.817 C 308.621 31.760,308.328 31.582,308.016 31.422 C 307.703 31.262,307.366 31.063,307.266 30.980 C 306.962 30.728,305.824 30.000,305.734 30.000 C 305.688 30.000,305.217 29.712,304.686 29.360 C 304.156 29.007,303.485 28.614,303.194 28.486 C 302.904 28.357,302.667 28.209,302.667 28.156 C 302.667 28.102,302.323 27.877,301.902 27.655 C 301.482 27.432,301.012 27.175,300.857 27.083 C 300.703 26.992,299.941 26.554,299.163 26.112 C 298.386 25.669,297.637 25.237,297.500 25.153 C 297.362 25.068,297.100 24.927,296.917 24.838 C 296.733 24.749,296.208 24.453,295.750 24.180 C 293.812 23.028,281.854 17.167,281.440 17.167 C 281.312 17.167,281.114 17.054,281.000 16.917 C 280.886 16.779,280.688 16.667,280.561 16.667 C 280.433 16.667,280.199 16.600,280.039 16.518 C 279.748 16.369,279.005 16.044,278.083 15.661 C 277.425 15.387,276.788 15.109,275.635 14.592 C 275.114 14.358,274.585 14.167,274.460 14.167 C 274.335 14.167,274.162 14.104,274.075 14.028 C 273.988 13.951,273.542 13.758,273.083 13.598 C 272.625 13.438,272.100 13.239,271.917 13.154 C 271.606 13.012,269.781 12.327,268.833 11.997 C 268.604 11.918,267.779 11.620,267.000 11.335 C 266.221 11.051,265.208 10.701,264.750 10.559 C 264.292 10.416,263.654 10.199,263.333 10.076 C 263.012 9.954,262.487 9.777,262.167 9.683 C 261.846 9.589,260.983 9.310,260.250 9.063 C 259.014 8.646,257.918 8.324,254.917 7.498 C 254.275 7.321,252.925 6.946,251.917 6.663 C 250.908 6.380,249.896 6.109,249.667 6.060 C 249.438 6.011,248.912 5.874,248.500 5.755 C 248.088 5.635,247.300 5.446,246.750 5.334 C 246.200 5.221,245.375 5.035,244.917 4.920 C 244.458 4.805,243.633 4.621,243.083 4.510 C 242.533 4.400,241.633 4.209,241.083 4.086 C 240.533 3.964,239.671 3.787,239.167 3.693 C 238.662 3.600,237.688 3.405,237.000 3.260 C 236.313 3.115,235.605 2.997,235.427 2.998 C 235.250 2.999,234.650 2.895,234.094 2.767 C 233.538 2.639,232.446 2.448,231.667 2.343 C 230.887 2.238,229.612 2.048,228.833 1.920 C 228.054 1.792,226.629 1.601,225.667 1.496 C 224.704 1.391,223.129 1.205,222.167 1.083 C 221.204 0.961,219.329 0.780,218.000 0.681 C 216.671 0.582,214.121 0.388,212.333 0.249 C 208.056 -0.082,191.449 -0.069,187.250 0.269 M141.417 125.964 C 142.500 126.256,144.886 127.362,145.280 127.756 C 145.414 127.890,145.610 128.000,145.716 128.000 C 145.822 128.000,158.079 140.168,172.954 155.040 L 200.000 182.079 226.962 155.123 C 241.791 140.297,254.001 128.167,254.097 128.167 C 254.192 128.167,254.416 128.031,254.594 127.865 C 256.544 126.048,261.842 125.056,265.000 125.916 C 272.834 128.050,276.670 136.499,273.116 143.792 C 272.747 144.548,272.388 145.167,272.317 145.167 C 272.247 145.167,272.139 145.335,272.077 145.542 C 272.016 145.748,259.805 158.085,244.943 172.958 L 217.921 200.000 244.943 227.042 C 259.805 241.915,272.016 254.252,272.077 254.458 C 272.139 254.665,272.246 254.833,272.315 254.833 C 272.384 254.833,272.721 255.393,273.064 256.076 C 276.258 262.454,273.733 270.075,267.398 273.172 C 266.654 273.536,265.942 273.834,265.814 273.836 C 265.687 273.837,265.246 273.957,264.833 274.101 C 262.248 275.009,256.492 273.903,254.594 272.135 C 254.416 271.969,254.192 271.833,254.097 271.833 C 254.001 271.833,241.790 259.703,226.962 244.877 L 200.000 217.920 173.038 244.877 C 158.210 259.703,145.999 271.833,145.903 271.833 C 145.808 271.833,145.567 271.984,145.369 272.169 C 143.498 273.912,137.737 275.003,135.167 274.101 C 134.754 273.957,134.313 273.837,134.186 273.836 C 131.892 273.812,126.188 268.108,126.164 265.814 C 126.163 265.687,126.043 265.246,125.899 264.833 C 124.997 262.263,126.088 256.502,127.831 254.631 C 128.016 254.433,128.167 254.192,128.167 254.097 C 128.167 254.001,140.297 241.790,155.123 226.962 L 182.080 200.000 155.123 173.038 C 140.297 158.210,128.167 145.999,128.167 145.903 C 128.167 145.808,128.017 145.569,127.835 145.374 C 125.350 142.706,124.886 136.682,126.850 132.583 C 127.785 130.632,130.615 127.500,131.444 127.500 C 131.551 127.500,131.664 127.434,131.694 127.354 C 131.768 127.160,133.910 126.167,134.254 126.167 C 134.401 126.167,134.681 126.082,134.875 125.978 C 135.799 125.483,139.598 125.475,141.417 125.964 " stroke="none" fill="#ececec" fill-rule="evenodd"/><path id="path1" d="M136.333 125.748 C 129.473 126.746,124.737 133.038,125.731 139.833 C 126.032 141.888,126.566 143.314,127.729 145.167 C 127.988 145.579,140.361 158.085,155.225 172.958 L 182.250 200.000 155.225 227.042 C 140.361 241.915,127.988 254.421,127.729 254.833 C 126.563 256.691,126.030 258.118,125.735 260.167 C 124.560 268.349,131.651 275.440,139.833 274.265 C 141.882 273.970,143.309 273.437,145.167 272.271 C 145.579 272.012,158.085 259.639,172.958 244.775 L 200.000 217.750 227.042 244.775 C 241.915 259.639,254.421 272.012,254.833 272.271 C 257.551 273.977,260.345 274.656,263.250 274.317 C 271.145 273.395,276.014 266.038,273.884 258.250 C 273.733 257.700,273.548 257.179,273.472 257.092 C 273.396 257.005,273.333 256.834,273.333 256.713 C 273.333 255.720,271.922 254.255,244.917 227.208 L 217.751 200.000 244.917 172.792 C 271.662 146.006,273.333 144.273,273.333 143.335 C 273.333 143.240,273.404 143.032,273.491 142.873 C 273.578 142.714,273.762 142.208,273.900 141.750 C 276.151 134.267,271.129 126.633,263.333 125.691 C 260.365 125.332,257.592 125.997,254.833 127.729 C 254.421 127.988,241.915 140.361,227.042 155.225 L 200.000 182.250 172.875 155.141 C 157.956 140.231,145.525 127.910,145.250 127.761 C 144.975 127.612,144.487 127.333,144.167 127.140 C 143.115 126.509,141.445 125.967,139.833 125.735 C 138.033 125.475,138.213 125.474,136.333 125.748 " stroke="none" fill="#848484" fill-rule="evenodd"/></g></svg>