<svg viewBox="0 0 117 117" xmlns="http://www.w3.org/2000/svg"><g fill-rule="nonzero" fill="none"><path d="M58.5 116.6c32 0 58-26 58-58s-26-58-58-58S.4 26.6.4 58.6s26.1 58 58.1 58Zm0-108c27.5 0 49.9 22.4 49.9 49.9S86 108.4 58.5 108.4 8.6 86 8.6 58.5 31 8.6 58.5 8.6Z" fill="#000000" class="fill-4a4a4a"></path><path d="M45.1 84.2c-2.3 0-4.1 1.8-4.1 4.1s1.8 4.1 4.1 4.1H72c2.3 0 4.1-1.8 4.1-4.1s-1.8-4.1-4.1-4.1h-9.4V48.1c0-2.3-1.8-4.1-4.1-4.1H45.1c-2.3 0-4.1 1.8-4.1 4.1s1.8 4.1 4.1 4.1h9.4v32h-9.4Z" fill="#000000" class="fill-17ab13"></path><circle cx="57.6" cy="30.6" fill="#000000" r="6.6" class="fill-17ab13"></circle></g></svg>