<svg xmlns="http://www.w3.org/2000/svg" xmlns:xlink="http://www.w3.org/1999/xlink" width="26px" height="26px" viewBox="0 0 26 26" version="1.1">
<g id="surface1">
<path style=" stroke:none;fill-rule:nonzero;fill:rgb(0%,0%,0%);fill-opacity:1;" d="M 9.285156 0 L 5.570312 0 C 4.546875 0 3.714844 0.832031 3.714844 1.855469 L 3.714844 24.144531 C 3.714844 25.167969 4.546875 26 5.570312 26 L 9.285156 26 C 10.3125 26 11.144531 25.167969 11.144531 24.144531 L 11.144531 1.855469 C 11.144531 0.832031 10.3125 0 9.285156 0 Z M 20.429688 0 L 16.714844 0 C 15.6875 0 14.855469 0.832031 14.855469 1.855469 L 14.855469 24.144531 C 14.855469 25.167969 15.6875 26 16.714844 26 L 20.429688 26 C 21.453125 26 22.285156 25.167969 22.285156 24.144531 L 22.285156 1.855469 C 22.285156 0.832031 21.453125 0 20.429688 0 Z M 20.429688 0 "/>
</g>
</svg>