<svg xmlns="http://www.w3.org/2000/svg" xmlns:xlink="http://www.w3.org/1999/xlink" width="40px" height="40px" viewBox="0 0 40 40" version="1.1">
<g id="surface1">
<path style=" stroke:none;fill-rule:nonzero;fill:rgb(0%,0%,0%);fill-opacity:1;" d="M 12.542969 10.269531 L 27.992188 19.191406 C 28.613281 19.550781 28.613281 20.449219 27.992188 20.808594 L 12.542969 29.730469 C 11.917969 30.089844 11.140625 29.640625 11.140625 28.921875 L 11.140625 11.078125 C 11.140625 10.359375 11.917969 9.910156 12.542969 10.269531 Z M 12.542969 10.269531 "/>
<path style=" stroke:none;fill-rule:nonzero;fill:rgb(0%,0%,0%);fill-opacity:1;" d="M 27.992188 19.191406 L 12.542969 10.269531 C 12.449219 10.21875 12.351562 10.1875 12.257812 10.167969 L 27.191406 18.789062 C 27.816406 19.152344 27.816406 20.050781 27.191406 20.410156 L 11.742188 29.328125 C 11.601562 29.410156 11.457031 29.445312 11.3125 29.449219 C 11.574219 29.824219 12.09375 29.988281 12.542969 29.730469 L 27.992188 20.808594 C 28.613281 20.449219 28.613281 19.550781 27.992188 19.191406 Z M 27.992188 19.191406 "/>
<path style="fill:none;stroke-width:1;stroke-linecap:butt;stroke-linejoin:miter;stroke:rgb(0%,0%,0%);stroke-opacity:1;stroke-miterlimit:10;" d="M 31.357422 25.673828 L 69.980469 47.978516 C 71.533203 48.876953 71.533203 51.123047 69.980469 52.021484 L 31.357422 74.326172 C 29.794922 75.224609 27.851562 74.101562 27.851562 72.304688 L 27.851562 27.695312 C 27.851562 25.898438 29.794922 24.775391 31.357422 25.673828 Z M 31.357422 25.673828 " transform="matrix(0.4,0,0,0.4,0,0)"/>
</g>
</svg>