<svg xmlns:mydata="http://www.w3.org/2000/svg" xmlns="http://www.w3.org/2000/svg" xmlns:xlink="http://www.w3.org/1999/xlink"   version="1.1" viewBox="70 170 410 125" fill="#fff" width="100">
      <g  fill-rule="nonzero" stroke="none" stroke-width="1" stroke-linecap="butt" stroke-linejoin="miter" stroke-miterlimit="10" stroke-dasharray="" stroke-dashoffset="0" font-family="none" font-weight="none" font-size="none" text-anchor="none" style="mix-blend-mode: normal">
        <g data-paper-data="{&quot;isGlobalGroup&quot;:true,&quot;bounds&quot;:{&quot;x&quot;:73.57829145426231,&quot;y&quot;:174.598694375143,&quot;width&quot;:402.8434170914753,&quot;height&quot;:120.80261124971406}}">
          <g data-paper-data="{&quot;stacked&quot;:true,&quot;isPrimaryText&quot;:true}">
            <path d="M247.70414,210.14692c8.41601,0 14.85179,-4.80915 14.85179,-14.5689c0,-9.90119 -6.57722,-14.49818 -14.85179,-14.49818h-13.50806c-2.26313,0 -4.10192,1.83879 -4.10192,4.10192v39.95839c0,2.26313 1.83879,4.10192 4.10192,4.10192c2.26313,0 4.10192,-1.83879 4.10192,-4.10192v-14.99324zM247.06764,188.43501c4.31409,0 7.00156,2.4753 7.00156,7.143c0,4.59698 -2.61674,7.21373 -7.00156,7.21373h-8.76963v-14.35673z" data-paper-data="{&quot;glyphName&quot;:&quot;P&quot;,&quot;glyphIndex&quot;:0,&quot;firstGlyphOfWord&quot;:true,&quot;word&quot;:1,&quot;line&quot;:1,&quot;firstGlyphOfFirstLine&quot;:true}"/>
            <path d="M286.9553,229.66641c14.28601,0 17.82215,-8.48674 17.82215,-16.54914v-28.50129c0,-2.26313 -1.83879,-4.10192 -4.10192,-4.10192c-2.26313,0 -4.10192,1.83879 -4.10192,4.10192v28.50129c0,4.31409 -1.62662,9.33541 -9.6183,9.33541c-7.99168,0 -9.6183,-5.02132 -9.6183,-9.33541v-28.50129c0,-2.26313 -1.83879,-4.10192 -4.10192,-4.10192c-2.26313,0 -4.10192,1.83879 -4.10192,4.10192v28.50129c0,8.0624 3.53614,16.54914 17.82215,16.54914z" data-paper-data="{&quot;glyphName&quot;:&quot;U&quot;,&quot;glyphIndex&quot;:1,&quot;word&quot;:1,&quot;line&quot;:1}"/>
            <path d="M339.07801,191.1932c1.06084,0.99012 2.05096,1.5559 3.04108,1.5559c2.12168,0 3.81903,-1.69735 3.81903,-3.74831c0,-0.84867 -0.28289,-1.62662 -0.70723,-2.26313c-2.82891,-4.0312 -8.9818,-6.64794 -16.05408,-6.64794c-11.24493,0 -16.26625,5.94072 -16.26625,12.94227c0,17.0442 25.81383,12.30577 25.81383,22.6313c0,4.38481 -3.1118,6.5065 -9.54758,6.5065c-4.87987,0 -8.62818,-2.40458 -11.59854,-5.37493c-0.70723,-0.70723 -1.5559,-1.5559 -3.1118,-1.5559c-2.05096,0 -3.74831,1.69735 -3.74831,3.81903c0,0.70723 0.21217,1.41446 0.56578,1.98024c2.75819,4.45554 9.47686,8.62818 17.89287,8.62818c11.66926,0 17.75143,-5.37493 17.75143,-14.00312c0,-17.6807 -25.81383,-13.36661 -25.81383,-22.6313c0,-2.82891 2.19241,-5.5871 8.0624,-5.5871c4.0312,0 7.70879,1.62662 9.90119,3.74831z" data-paper-data="{&quot;glyphName&quot;:&quot;S&quot;,&quot;glyphIndex&quot;:2,&quot;word&quot;:1,&quot;line&quot;:1}"/>
            <path d="M390.06916,184.61598c0,-2.26313 -1.83879,-4.10192 -4.10192,-4.10192c-2.26313,0 -4.10192,1.83879 -4.10192,4.10192v15.98336h-20.22672v-15.98336c0,-2.26313 -1.83879,-4.10192 -4.10192,-4.10192c-2.26313,0 -4.10192,1.83879 -4.10192,4.10192v40.52417c0,2.26313 1.83879,4.10192 4.10192,4.10192c2.26313,0 4.10192,-1.83879 4.10192,-4.10192v-17.0442h20.22672v17.0442c0,2.26313 1.83879,4.10192 4.10192,4.10192c2.26313,0 4.10192,-1.83879 4.10192,-4.10192z" data-paper-data="{&quot;glyphName&quot;:&quot;H&quot;,&quot;glyphIndex&quot;:3,&quot;word&quot;:1,&quot;line&quot;:1}"/>
            <path d="M406.75974,184.61598c0,-2.26313 -1.83879,-4.10192 -4.10192,-4.10192c-2.26313,0 -4.10192,1.83879 -4.10192,4.10192v40.52417c0,2.26313 1.83879,4.10192 4.10192,4.10192c2.26313,0 4.10192,-1.83879 4.10192,-4.10192v-13.57878l4.0312,-4.24337l14.5689,20.156c0.56578,0.77795 1.62662,1.76807 3.32397,1.76807c2.19241,0 4.0312,-1.83879 4.0312,-4.0312c0,-0.84867 -0.28289,-1.69735 -0.77795,-2.33385l-15.62974,-21.28757l13.29589,-14.42745c0.63651,-0.70723 1.06084,-1.5559 1.06084,-2.68747c0,-2.19241 -1.76807,-3.96048 -3.96048,-3.96048c-1.06084,0 -2.12168,0.42434 -2.97036,1.34373l-16.97347,18.95371z" data-paper-data="{&quot;glyphName&quot;:&quot;K&quot;,&quot;glyphIndex&quot;:4,&quot;word&quot;:1,&quot;line&quot;:1}"/>
            <path d="M461.4992,208.80318h-11.59854l5.79927,-14.85179zM464.25739,216.2998l4.31409,10.25481c0.63651,1.48518 1.98024,2.68747 3.81903,2.68747c2.19241,0 4.0312,-1.83879 4.0312,-4.0312c0,-0.42434 -0.07072,-0.99012 -0.28289,-1.48518l-16.69058,-40.66562c-0.42434,-0.99012 -1.5559,-2.54602 -3.74831,-2.54602c-2.19241,0 -3.32397,1.5559 -3.74831,2.54602l-16.69058,40.66562c-0.21217,0.49506 -0.28289,1.06084 -0.28289,1.48518c0,2.19241 1.83879,4.0312 4.0312,4.0312c1.83879,0 3.18253,-1.20229 3.81903,-2.68747l4.31409,-10.25481z" data-paper-data="{&quot;glyphName&quot;:&quot;A&quot;,&quot;glyphIndex&quot;:5,&quot;lastGlyphOfWord&quot;:true,&quot;word&quot;:1,&quot;line&quot;:1,&quot;lastGlyphOfFirstLine&quot;:true}"/>
            <path d="M252.72546,281.42354c1.41446,0 2.75819,-0.70723 3.46542,-1.98024l11.10348,-19.73166v25.7431c0,2.19241 1.83879,4.0312 4.0312,4.0312c2.19241,0 4.0312,-1.83879 4.0312,-4.0312v-40.66562c0,-2.19241 -1.83879,-4.0312 -4.0312,-4.0312c-1.76807,0 -2.89964,0.99012 -3.60686,2.26313l-14.99324,26.87467l-14.99324,-26.87467c-0.70723,-1.27301 -1.83879,-2.26313 -3.60686,-2.26313c-2.19241,0 -4.0312,1.83879 -4.0312,4.0312v40.66562c0,2.19241 1.83879,4.0312 4.0312,4.0312c2.19241,0 4.0312,-1.83879 4.0312,-4.0312v-25.7431l11.10348,19.73166c0.70723,1.27301 2.05096,1.98024 3.46542,1.98024z" data-paper-data="{&quot;glyphName&quot;:&quot;M&quot;,&quot;glyphIndex&quot;:6,&quot;firstGlyphOfWord&quot;:true,&quot;word&quot;:2,&quot;line&quot;:2,&quot;firstGlyphOfSecondLine&quot;:true}"/>
            <path d="M301.66564,289.91028c14.28601,0 17.82215,-8.48674 17.82215,-16.54914v-28.50129c0,-2.26313 -1.83879,-4.10192 -4.10192,-4.10192c-2.26313,0 -4.10192,1.83879 -4.10192,4.10192v28.50129c0,4.31409 -1.62662,9.33541 -9.6183,9.33541c-7.99168,0 -9.6183,-5.02132 -9.6183,-9.33541v-28.50129c0,-2.26313 -1.83879,-4.10192 -4.10192,-4.10192c-2.26313,0 -4.10192,1.83879 -4.10192,4.10192v28.50129c0,8.0624 3.53614,16.54914 17.82215,16.54914z" data-paper-data="{&quot;glyphName&quot;:&quot;U&quot;,&quot;glyphIndex&quot;:7,&quot;word&quot;:2,&quot;line&quot;:2}"/>
            <path d="M353.78836,251.43707c1.06084,0.99012 2.05096,1.5559 3.04108,1.5559c2.12168,0 3.81903,-1.69735 3.81903,-3.74831c0,-0.84867 -0.28289,-1.62662 -0.70723,-2.26313c-2.82891,-4.0312 -8.9818,-6.64794 -16.05408,-6.64794c-11.24493,0 -16.26625,5.94072 -16.26625,12.94227c0,17.0442 25.81383,12.30577 25.81383,22.6313c0,4.38481 -3.1118,6.5065 -9.54758,6.5065c-4.87987,0 -8.62818,-2.40458 -11.59854,-5.37493c-0.70723,-0.70723 -1.5559,-1.5559 -3.1118,-1.5559c-2.05096,0 -3.74831,1.69735 -3.74831,3.81903c0,0.70723 0.21217,1.41446 0.56578,1.98024c2.75819,4.45554 9.47686,8.62818 17.89287,8.62818c11.66926,0 17.75143,-5.37493 17.75143,-14.00312c0,-17.6807 -25.81383,-13.36661 -25.81383,-22.6313c0,-2.82891 2.19241,-5.5871 8.0624,-5.5871c4.0312,0 7.70879,1.62662 9.90119,3.74831z" data-paper-data="{&quot;glyphName&quot;:&quot;S&quot;,&quot;glyphIndex&quot;:8,&quot;word&quot;:2,&quot;line&quot;:2}"/>
            <path d="M376.34893,244.85985c0,-2.26313 -1.83879,-4.10192 -4.10192,-4.10192c-2.26313,0 -4.10192,1.83879 -4.10192,4.10192v40.52417c0,2.26313 1.83879,4.10192 4.10192,4.10192c2.26313,0 4.10192,-1.83879 4.10192,-4.10192z" data-paper-data="{&quot;glyphName&quot;:&quot;I&quot;,&quot;glyphIndex&quot;:9,&quot;word&quot;:2,&quot;line&quot;:2}"/>
            <path d="M405.13312,289.91028c7.56734,0 14.21528,-3.1118 17.60998,-7.63806c0.42434,-0.56578 0.70723,-1.27301 0.70723,-2.12168c0,-2.12168 -1.69735,-3.81903 -3.81903,-3.81903c-0.99012,0 -1.90952,0.42434 -3.04108,1.5559c-3.39469,3.46542 -6.22361,4.66771 -11.4571,4.66771c-9.40613,0 -13.6495,-5.02132 -13.6495,-17.39781c0,-11.66926 4.24337,-17.46853 13.6495,-17.46853c5.16277,0 8.20385,1.76807 11.10348,4.9506c0.9194,0.99012 1.90952,1.41446 2.89964,1.41446c2.12168,0 3.81903,-1.69735 3.81903,-3.74831c0,-0.77795 -0.21217,-1.48518 -0.77795,-2.33385c-2.89964,-4.24337 -8.48674,-7.63806 -17.0442,-7.63806c-14.07384,0 -22.13624,8.0624 -22.13624,24.82371c0,17.32709 8.0624,24.75298 22.13624,24.75298z" data-paper-data="{&quot;glyphName&quot;:&quot;C&quot;,&quot;glyphIndex&quot;:10,&quot;lastGlyphOfWord&quot;:true,&quot;word&quot;:2,&quot;line&quot;:2,&quot;lastGlyphOfSecondLine&quot;:true}"/>
          </g>
          <g data-paper-data="{&quot;fillRule&quot;:&quot;nonzero&quot;,&quot;fillRuleOriginal&quot;:&quot;nonzero&quot;,&quot;isIcon&quot;:true,&quot;iconStyle&quot;:&quot;standalone&quot;,&quot;selectedEffects&quot;:{&quot;container&quot;:&quot;&quot;,&quot;transformation&quot;:&quot;&quot;,&quot;pattern&quot;:&quot;&quot;},&quot;bounds&quot;:{&quot;x&quot;:73.57829145426231,&quot;y&quot;:174.598694375143,&quot;width&quot;:105.6345297050384,&quot;height&quot;:120.80261124971406},&quot;iconType&quot;:&quot;initial&quot;,&quot;initialText&quot;:&quot;P&quot;,&quot;rawInitialId&quot;:895,&quot;suitableAsStandaloneIcon&quot;:true}">
            <path d="M175.34012,202.61068c-8.3748,-19.84537 -28.54342,-29.86503 -49.62451,-27.72884c-10.02242,1.01591 -20.08549,3.30633 -29.46327,7.02087c-5.56997,2.20638 -10.8444,4.98258 -14.78244,9.61977c-4.78865,5.64015 -6.8297,12.06996 -7.55561,19.31526c-1.15075,11.48719 0.9448,23.59963 1.92654,35.04988c1.10365,12.86328 2.4936,25.67948 3.92049,38.51043c0.65665,5.90521 4.5873,11.00325 11.00325,11.00325c6.20352,0 10.7077,-5.04446 11.00325,-11.00324c0.89308,-18.0315 1.58297,-36.04639 1.92007,-54.09822c0.08035,-4.32131 -0.06743,-8.64633 0.03325,-12.96672c0.01662,-0.72776 0.04155,-1.45459 0.08312,-2.18051c0.01384,-0.23643 0.15146,-1.20155 0.21796,-1.75661c0.07389,-0.28723 0.14038,-0.55506 0.15423,-0.60123c0.05449,-0.18194 0.1099,-0.36296 0.16439,-0.5449c0.00832,-0.01477 0.02124,-0.03787 0.03048,-0.05356c0.03233,-0.0314 0.06281,-0.06096 0.09328,-0.09051c0.6585,-0.38419 1.31976,-0.73516 1.99487,-1.08241c0.01569,-0.00462 0.02678,-0.00739 0.0434,-0.012c3.67114,-1.00576 7.24438,-2.36153 10.9386,-3.32387c2.04383,-0.53289 4.10336,-1.01776 6.17674,-1.42136c0.77486,-0.15054 1.55249,-0.28723 2.33105,-0.4156c0.05172,-0.00832 0.08404,-0.01479 0.13023,-0.02216c0.11082,-0.00739 0.24659,-0.01662 0.4119,-0.02955c1.80093,-0.13945 3.5917,-0.25951 5.40003,-0.24013c0.74254,0.00832 1.55157,0.14315 2.28765,0.08774c0.2355,-0.01754 0.35741,-0.04249 0.41837,-0.06834c0.17085,0.04894 0.39898,0.10898 0.71391,0.18379c0.97989,0.2355 1.9487,0.4784 2.92674,0.72591c0.02031,0.00462 0.48487,0.15516 0.88293,0.278c0.49411,0.23088 1.36132,0.616 1.58667,0.74161c0.52366,0.29277 1.0233,0.62062 1.54327,0.91893c0.05634,0.03233 0.09697,0.05634 0.14777,0.08497c0.29923,0.26136 0.59939,0.52274 0.87369,0.81088c0.52551,0.55044 1.03347,1.24311 1.62638,1.70581c0.00462,0.0037 0.00647,0.0037 0.01017,0.00739c0.02863,0.04802 0.04709,0.08312 0.0785,0.13576c0.6825,1.14059 1.27636,2.51761 2.04475,3.57878c0.15978,0.43683 0.3177,0.87369 0.46271,1.31607c0.43868,1.341 0.76009,2.69493 1.1018,4.06272c0.14592,0.58461 0.21612,1.18492 0.3334,1.77507c-0.69729,-3.49935 -0.12376,-0.78318 -0.12838,0.133c-0.00739,1.3955 -0.00554,2.77345 -0.06281,4.168c-0.09328,0.46455 -0.1727,0.93187 -0.30108,1.38903c-0.3177,1.12767 -0.65203,2.23224 -1.01683,3.33773c-0.08127,0.18564 -0.16808,0.36481 -0.24752,0.49133c-0.56983,0.90879 -1.04454,1.87483 -1.62916,2.77899c-0.13391,0.20687 -0.278,0.40636 -0.4156,0.61046c-0.08959,0.06834 -0.9448,1.16276 -1.21909,1.45829c-1.1212,1.20801 -2.3246,2.3292 -3.5834,3.3913c-0.07942,0.04709 -0.1764,0.10713 -0.29554,0.18286c-0.91248,0.57815 -1.80001,1.17754 -2.73465,1.72612c-1.26805,0.74346 -2.57117,1.43243 -3.9011,2.06137c0.15886,-0.14407 -2.80762,0.98635 -3.42455,1.17569c-1.65501,0.50888 -3.32387,1.00391 -5.01306,1.38995c-0.60031,0.13668 -1.20801,0.24752 -1.81387,0.36019c-0.2355,0.01754 -1.23942,0.15146 -1.75291,0.20318c-3.37283,0.34448 -5.98649,1.24494 -9.06932,2.62474c-8.56137,3.83275 -6.39008,15.5573 0,19.9368c7.86778,5.39264 20.81049,3.87801 29.46329,1.17291c9.06932,-2.83532 17.71935,-7.84284 24.17685,-14.89049c13.15606,-14.36037 16.97774,-34.98615 9.37872,-52.99457zM104.40457,212.139c0.03325,-0.05726 0.06188,-0.10898 0.10067,-0.17824c-0.02031,-0.06373 -0.02309,-0.11082 -0.02771,-0.1607c0.02863,-0.09513 0.05726,-0.19026 0.08681,-0.28538c0.1136,-0.04709 0.22074,0.17547 -0.15978,0.62432zM104.54864,211.53039c-0.02771,0.06281 -0.05264,0.11821 -0.07757,0.17547c0.00647,-0.09328 0.03787,-0.14961 0.07757,-0.17547zM104.49047,212.08174c1.7095,-1.65871 0.55044,-0.39621 0,0zM147.52449,230.68494c0.32694,-0.91986 0.21519,-0.53013 0,0zM148.71587,226.74412c-0.05818,1.32438 -0.04802,0.71113 0,0zM120.80878,237.71781c14.78706,0 14.81107,-22.98085 0,-22.98085c-14.78614,0 -14.81107,22.98085 0,22.98085z" data-paper-data="{&quot;isPathIcon&quot;:true}"/>
          </g>
          <path d="M199.56536,295.40131v-120.80261h2.23934v120.80261z" data-paper-data="{&quot;isShapeTextSeparator&quot;:true}"/>
        </g>
      </g>
  
    </svg>